<?xml version="1.0" ?><svg style="enable-background:new 0 0 48 48;" version="1.1" viewBox="0 0 48 48" xml:space="preserve" xmlns="http://www.w3.org/2000/svg" xmlns:xlink="http://www.w3.org/1999/xlink"><style type="text/css">
	.Round_x0020_Corners_x0020_2_x0020_pt{fill:#FFFFFF;stroke:#231F20;stroke-miterlimit:10;}
	.Live_x0020_Reflect_x0020_X{fill:none;}
	.Bevel_x0020_Soft{fill:url(#SVGID_1_);}
	.Dusk{fill:#FFFFFF;}
	.Foliage_GS{fill:#FFDD00;}
	.Pompadour_GS{fill-rule:evenodd;clip-rule:evenodd;fill:#44ADE2;}
	.st0{display:none;}
	.st1{fill:none;stroke:#303030;stroke-width:0.5;stroke-linecap:round;stroke-linejoin:round;stroke-miterlimit:10;}
	.st2{fill:none;stroke:#303030;stroke-width:0.4;stroke-linecap:round;stroke-linejoin:round;stroke-miterlimit:10;}
	.st3{fill:#303030;}
	.st4{fill:none;stroke:#303030;stroke-width:0.6;stroke-linecap:round;stroke-linejoin:round;stroke-miterlimit:10;}
	.st5{fill:none;stroke:#303030;stroke-width:0.5;stroke-miterlimit:10;}
</style><linearGradient gradientUnits="userSpaceOnUse" id="SVGID_1_" x1="-174" x2="-173.29289" y1="-116" y2="-115.29289"><stop offset="0" style="stop-color:#DEDFE3"/><stop offset="0.17833" style="stop-color:#DADBDF"/><stop offset="0.36114" style="stop-color:#CECFD3"/><stop offset="0.54604" style="stop-color:#B9BCBF"/><stop offset="0.7324" style="stop-color:#9CA0A2"/><stop offset="0.91815" style="stop-color:#787D7E"/><stop offset="1" style="stop-color:#656B6C"/></linearGradient><g class="st0" id="Padding__x26__Artboard"/><g id="Icons"><g><path class="st4" d="M33.63495,17.92005v17.8599c0,0.57-0.4699,1.04-1.05,1.04h-17.18c-0.58,0-1.0399-0.47-1.0399-1.04v-23.5599    c0-0.58,0.4599-1.04,1.0399-1.04h11.49L33.63495,17.92005z"/><path class="st4" d="M26.89495,11.18005l6.74,6.74h-5.35c-0.77,0-1.39-0.62-1.39-1.39V11.18005z"/><line class="st4" x1="33.63495" x2="26.89495" y1="17.92005" y2="11.18005"/><line class="st4" x1="18.61985" x2="29.38015" y1="29.70905" y2="29.70905"/><line class="st4" x1="18.61985" x2="29.38015" y1="32.30785" y2="32.30785"/><g><path class="st3" d="M26.89495,24.00355c0,0.2456-0.0606,0.5111-0.1817,0.7968c-0.1211,0.2856-0.311,0.5659-0.5703,0.8413     c-0.2598,0.2749-0.5908,0.4985-0.9936,0.6704c-0.4034,0.1714-0.8731,0.2573-1.4092,0.2573c-0.4068,0-0.7769-0.0386-1.1099-0.1157     c-0.333-0.0771-0.6352-0.1973-0.9067-0.3599c-0.2715-0.163-0.5215-0.3779-0.7495-0.644     c-0.2032-0.2422-0.3765-0.5127-0.5205-0.8125c-0.1436-0.2998-0.2515-0.6195-0.3233-0.9594     c-0.0718-0.3403-0.1079-0.7011-0.1079-1.0836c0-0.62,0.0903-1.1757,0.271-1.6664c0.1807-0.4907,0.439-0.9106,0.7754-1.2593     c0.3364-0.3491,0.731-0.6143,1.1831-0.7968c0.4521-0.1822,0.9341-0.2735,1.4458-0.2735c0.624,0,1.1797,0.1245,1.667,0.3736     c0.4873,0.249,0.8603,0.5566,1.1201,0.9228c0.2593,0.3662,0.3892,0.7124,0.3892,1.0386c0,0.1787-0.0635,0.3364-0.1895,0.473     c-0.1264,0.1369-0.2788,0.2052-0.4575,0.2052c-0.1997,0-0.3496-0.0473-0.4497-0.1422c-0.0996-0.0946-0.2109-0.2577-0.3335-0.4891     c-0.2036-0.3819-0.4429-0.6675-0.7178-0.857c-0.2754-0.1889-0.6147-0.2837-1.0176-0.2837c-0.6416,0-1.1523,0.2437-1.5327,0.7305     c-0.3803,0.4873-0.5703,1.1797-0.5703,2.0772c0,0.5996,0.084,1.0981,0.2525,1.4961c0.1679,0.3973,0.4062,0.6947,0.7148,0.891     c0.3086,0.1963,0.6694,0.2944,1.083,0.2944c0.4487,0,0.8281-0.1113,1.1387-0.334c0.31-0.2226,0.5439-0.5493,0.7016-0.9804     c0.0669-0.2031,0.149-0.3691,0.2471-0.497c0.0982-0.128,0.2559-0.192,0.4736-0.192c0.1856,0,0.3453,0.065,0.4781,0.1949     C26.82805,23.64955,26.89495,23.81115,26.89495,24.00355z"/></g></g></g></svg>