<?xml version="1.0" ?><svg style="enable-background:new 0 0 48 48;" version="1.1" viewBox="0 0 48 48" xml:space="preserve" xmlns="http://www.w3.org/2000/svg" xmlns:xlink="http://www.w3.org/1999/xlink"><style type="text/css">
	.Round_x0020_Corners_x0020_2_x0020_pt{fill:#FFFFFF;stroke:#231F20;stroke-miterlimit:10;}
	.Live_x0020_Reflect_x0020_X{fill:none;}
	.Bevel_x0020_Soft{fill:url(#SVGID_1_);}
	.Dusk{fill:#FFFFFF;}
	.Foliage_GS{fill:#FFDD00;}
	.Pompadour_GS{fill-rule:evenodd;clip-rule:evenodd;fill:#44ADE2;}
	.st0{display:none;}
	.st1{fill:none;stroke:#303030;stroke-width:0.5;stroke-linecap:round;stroke-linejoin:round;stroke-miterlimit:10;}
	.st2{fill:none;stroke:#303030;stroke-width:0.4;stroke-linecap:round;stroke-linejoin:round;stroke-miterlimit:10;}
	.st3{fill:#303030;}
	.st4{fill:none;stroke:#303030;stroke-width:0.6;stroke-linecap:round;stroke-linejoin:round;stroke-miterlimit:10;}
	.st5{fill:none;stroke:#303030;stroke-width:0.5;stroke-miterlimit:10;}
</style><linearGradient gradientUnits="userSpaceOnUse" id="SVGID_1_" x1="0" x2="0.7071" y1="-116" y2="-115.29289"><stop offset="0" style="stop-color:#DEDFE3"/><stop offset="0.17833" style="stop-color:#DADBDF"/><stop offset="0.36114" style="stop-color:#CECFD3"/><stop offset="0.54604" style="stop-color:#B9BCBF"/><stop offset="0.7324" style="stop-color:#9CA0A2"/><stop offset="0.91815" style="stop-color:#787D7E"/><stop offset="1" style="stop-color:#656B6C"/></linearGradient><g class="st0" id="Padding__x26__Artboard"/><g id="Icons"><g><path class="st4" d="M33.63495,17.92005v17.8599c0,0.57-0.4699,1.04-1.05,1.04h-17.18c-0.58,0-1.0399-0.47-1.0399-1.04v-23.5599    c0-0.58,0.4599-1.04,1.0399-1.04h11.49L33.63495,17.92005z"/><path class="st4" d="M26.89495,11.18005l6.74,6.74h-5.35c-0.77,0-1.39-0.62-1.39-1.39V11.18005z"/><line class="st4" x1="33.63495" x2="26.89495" y1="17.92005" y2="11.18005"/><line class="st4" x1="18.61985" x2="29.38015" y1="29.70905" y2="29.70905"/><line class="st4" x1="18.61985" x2="29.38015" y1="32.30785" y2="32.30785"/><g><path class="st3" d="M24.10015,26.43795h-2.3555c-0.3403,0-0.583-0.0761-0.7285-0.2285     c-0.1455-0.1528-0.2183-0.3955-0.2183-0.7285v-5.7943c0-0.34,0.0747-0.5845,0.2237-0.7334     c0.1489-0.1489,0.3901-0.2232,0.7231-0.2232h2.4976c0.3676,0,0.687,0.0225,0.957,0.0684     c0.2695,0.0454,0.5117,0.1328,0.7256,0.2627c0.1821,0.1089,0.3432,0.2461,0.4834,0.4125     c0.1401,0.1666,0.247,0.3507,0.3208,0.5523c0.0737,0.2017,0.1103,0.4146,0.1103,0.6387c0,0.7715-0.3857,1.3355-1.1567,1.6934     c1.0132,0.3222,1.5195,0.9496,1.5195,1.8823c0,0.431-0.1103,0.8192-0.331,1.1644c-0.2207,0.3453-0.5191,0.6001-0.8941,0.7652     c-0.2348,0.0981-0.5049,0.1675-0.8095,0.2075C24.86235,26.41795,24.50685,26.43795,24.10015,26.43795z M22.35985,19.90245v1.9927     h1.4302c0.3887,0,0.6895-0.0366,0.9014-0.1105c0.2124-0.0736,0.3745-0.2137,0.4863-0.4203     c0.0879-0.1475,0.1318-0.312,0.1318-0.4947c0-0.3891-0.1386-0.6474-0.4155-0.7753c-0.2768-0.1279-0.6992-0.1919-1.2671-0.1919     H22.35985z M23.98445,23.01525h-1.6246v2.2504h1.6773c1.0547,0,1.5825-0.3804,1.5825-1.141c0-0.3892-0.1367-0.6714-0.4102-0.8467     C24.93605,23.10265,24.52785,23.01525,23.98445,23.01525z"/></g></g></g></svg>