<?xml version="1.0" ?><svg style="enable-background:new 0 0 48 48;" version="1.1" viewBox="0 0 48 48" xml:space="preserve" xmlns="http://www.w3.org/2000/svg" xmlns:xlink="http://www.w3.org/1999/xlink"><style type="text/css">
	.Round_x0020_Corners_x0020_2_x0020_pt{fill:#FFFFFF;stroke:#231F20;stroke-miterlimit:10;}
	.Live_x0020_Reflect_x0020_X{fill:none;}
	.Bevel_x0020_Soft{fill:url(#SVGID_1_);}
	.Dusk{fill:#FFFFFF;}
	.Foliage_GS{fill:#FFDD00;}
	.Pompadour_GS{fill-rule:evenodd;clip-rule:evenodd;fill:#44ADE2;}
	.st0{display:none;}
	.st1{fill:none;stroke:#303030;stroke-width:0.5;stroke-linecap:round;stroke-linejoin:round;stroke-miterlimit:10;}
	.st2{fill:none;stroke:#303030;stroke-width:0.4;stroke-linecap:round;stroke-linejoin:round;stroke-miterlimit:10;}
	.st3{fill:#303030;}
	.st4{fill:none;stroke:#303030;stroke-width:0.6;stroke-linecap:round;stroke-linejoin:round;stroke-miterlimit:10;}
	.st5{fill:none;stroke:#303030;stroke-width:0.5;stroke-miterlimit:10;}
</style><linearGradient gradientUnits="userSpaceOnUse" id="SVGID_1_" x1="-290" x2="-289.29291" y1="-58" y2="-57.29289"><stop offset="0" style="stop-color:#DEDFE3"/><stop offset="0.17833" style="stop-color:#DADBDF"/><stop offset="0.36114" style="stop-color:#CECFD3"/><stop offset="0.54604" style="stop-color:#B9BCBF"/><stop offset="0.7324" style="stop-color:#9CA0A2"/><stop offset="0.91815" style="stop-color:#787D7E"/><stop offset="1" style="stop-color:#656B6C"/></linearGradient><g class="st0" id="Padding__x26__Artboard"/><g id="Icons"><g><g><path class="st4" d="M33.63495,17.92005v17.8599c0,0.57-0.4699,1.04-1.05,1.04h-17.18c-0.58,0-1.0399-0.47-1.0399-1.04v-23.5599     c0-0.58,0.4599-1.04,1.0399-1.04h11.49L33.63495,17.92005z"/><path class="st4" d="M26.89495,11.18005l6.74,6.74h-5.35c-0.77,0-1.39-0.62-1.39-1.39V11.18005z"/><line class="st4" x1="33.63495" x2="26.89495" y1="17.92005" y2="11.18005"/></g><g><line class="st4" x1="18.61985" x2="29.38015" y1="29.70905" y2="29.70905"/><line class="st4" x1="18.61985" x2="29.38015" y1="32.30785" y2="32.30785"/></g><g><path class="st3" d="M25.79815,24.97895l-0.3467-0.9116h-2.9522l-0.3471,0.9316c-0.1353,0.3633-0.251,0.6084-0.3467,0.7353     c-0.0957,0.127-0.2525,0.191-0.4702,0.191c-0.1851,0-0.3487-0.0679-0.4908-0.2032c-0.1421-0.1357-0.2129-0.289-0.2129-0.4609     c0-0.0991,0.0166-0.2012,0.0494-0.3071c0.0332-0.1055,0.0879-0.2525,0.1635-0.4409l1.8575-4.7153     c0.0532-0.1358,0.1167-0.2983,0.1909-0.4883c0.0742-0.1899,0.1538-0.3471,0.2378-0.4731c0.084-0.1255,0.1948-0.2266,0.332-0.3042     c0.1367-0.0776,0.3062-0.1167,0.5078-0.1167c0.2046,0,0.3755,0.0391,0.5127,0.1167c0.1367,0.0776,0.2476,0.1772,0.3316,0.2993     c0.0844,0.1225,0.1552,0.2534,0.2128,0.3941c0.0581,0.1401,0.1314,0.3276,0.2207,0.562l1.897,4.6859     c0.1489,0.3569,0.2232,0.6162,0.2232,0.7778c0,0.1685-0.0703,0.3228-0.2105,0.4629c-0.1406,0.1406-0.3096,0.211-0.5078,0.211     c-0.1157,0-0.2148-0.021-0.2974-0.0621c-0.0825-0.0415-0.1518-0.0976-0.208-0.1684c-0.0561-0.0708-0.1162-0.1802-0.1806-0.3272     C25.89965,25.22065,25.84445,25.09125,25.79815,24.97895z M22.88555,22.96295h2.1694l-1.0947-2.9971L22.88555,22.96295z"/></g></g></g></svg>